<svg xmlns="http://www.w3.org/2000/svg"  viewBox="0 0 100 100" width="400px" height="400px"><path fill="#f15b6c" d="M69,82H31c-7.18,0-13-5.82-13-13V31c0-7.18,5.82-13,13-13h38c7.18,0,13,5.82,13,13v38	C82,76.18,76.18,82,69,82z"/><path fill="#1f212b" d="M69,83H31c-7.72,0-14-6.28-14-14V31c0-7.72,6.28-14,14-14h38c7.72,0,14,6.28,14,14v38	C83,76.72,76.72,83,69,83z M31,19c-6.617,0-12,5.383-12,12v38c0,6.617,5.383,12,12,12h38c6.617,0,12-5.383,12-12V31	c0-6.617-5.383-12-12-12H31z"/><path fill="#1f212b" d="M66.5,78h-33C27.159,78,22,72.841,22,66.5v-33C22,27.159,27.159,22,33.5,22h33	c0.353,0,0.7,0.021,1.045,0.053c0.275,0.025,0.478,0.268,0.453,0.543c-0.025,0.275-0.27,0.479-0.543,0.453	C67.14,23.021,66.823,23,66.5,23h-33C27.71,23,23,27.71,23,33.5v33C23,72.29,27.71,77,33.5,77h33C72.29,77,77,72.29,77,66.5v-17	c0-0.276,0.224-0.5,0.5-0.5s0.5,0.224,0.5,0.5v17C78,72.841,72.841,78,66.5,78z"/><path fill="#1f212b" d="M77.5,40c-0.276,0-0.5-0.224-0.5-0.5v-2c0-0.276,0.224-0.5,0.5-0.5s0.5,0.224,0.5,0.5v2	C78,39.776,77.776,40,77.5,40z"/><path fill="#1f212b" d="M77.5,47c-0.276,0-0.5-0.224-0.5-0.5v-4c0-0.276,0.224-0.5,0.5-0.5s0.5,0.224,0.5,0.5v4	C78,46.776,77.776,47,77.5,47z"/><path fill="#fff" d="M68.747,52.247c-0.413-1.474-1.632-2.637-3.182-3.032C62.759,48.5,50,48.5,50,48.5	s-12.759,0-15.565,0.718c-1.547,0.393-2.769,1.556-3.182,3.029C30.5,54.922,30.5,60.5,30.5,60.5s0,5.578,0.753,8.253	c0.413,1.474,1.632,2.637,3.182,3.032C37.241,72.5,50,72.5,50,72.5s12.759,0,15.565-0.718c1.547-0.393,2.769-1.556,3.182-3.029	C69.5,66.078,69.5,60.5,69.5,60.5S69.5,54.922,68.747,52.247z"/><path fill="#1f212b" d="M50,73c-0.523,0-12.854-0.008-15.689-0.73c-1.722-0.439-3.078-1.735-3.54-3.382	C30.009,66.179,30,60.73,30,60.5s0.009-5.679,0.771-8.389c0.462-1.646,1.818-2.941,3.54-3.378C37.146,48.009,49.477,48,50,48	s12.854,0.008,15.689,0.73c1.722,0.439,3.078,1.734,3.54,3.381l0,0C69.991,54.821,70,60.27,70,60.5s-0.009,5.679-0.771,8.389	c-0.462,1.646-1.818,2.941-3.54,3.378C62.854,72.991,50.523,73,50,73z M50,49c-0.127,0-12.728,0.008-15.441,0.702	c-1.377,0.35-2.459,1.376-2.824,2.68C31.009,54.96,31,60.445,31,60.5s0.009,5.54,0.734,8.117c0.365,1.305,1.447,2.332,2.824,2.684	C37.272,71.992,49.873,72,50,72s12.728-0.008,15.441-0.702c1.377-0.35,2.459-1.376,2.824-2.68C68.991,66.04,69,60.555,69,60.5	s-0.009-5.54-0.734-8.117v-0.001c-0.365-1.304-1.447-2.331-2.824-2.683C62.728,49.008,50.127,49,50,49z"/><path fill="#f15b6c" d="M38.998,69h-2.496V54.344H34V52h7.5v2.344h-2.502V69z"/><path fill="#f15b6c" d="M48.5,69h-2.25l-0.252-1.605C45.014,68.402,43.839,69,42.925,69c-0.8,0-1.362-0.326-1.638-0.924	C41.123,67.7,41,67.141,41,66.297V55.542h2.502v10.99C43.563,66.869,43.827,67,44.149,67c0.501,0,1.301-0.515,1.849-1.195V55.542	H48.5V69z"/><path fill="#f15b6c" d="M66,62.836V59c0-1.105-0.287-1.904-0.8-2.42c-0.686-0.705-1.676-1.08-2.912-1.08	c-1.263,0-2.238,0.375-2.95,1.08c-0.539,0.516-0.838,1.363-0.838,2.465v6.528c0,1.091,0.337,1.865,0.861,2.373	C60.076,68.648,61.049,69,62.35,69c1.289,0,2.3-0.364,2.977-1.116c0.299-0.328,0.498-0.705,0.586-1.116	C65.924,66.583,66,66.077,66,65.478h-2.502v0.941c0,0.538-0.563,0.985-1.248,0.985s-1.248-0.447-1.248-0.985v-3.583H66z M61.002,58.189c0-0.552,0.563-0.988,1.248-0.988s1.248,0.436,1.248,0.988v3.017h-2.499v-3.017H61.002z"/><path fill="#f15b6c" d="M57.178,56.947c-0.314-0.916-1.076-1.419-2.025-1.431c-1.213-0.011-1.715,0.587-2.652,1.616V52H50v17	h2.251l0.252-1.464C53.288,68.449,54.314,69,55.152,69c0.95,0,1.761-0.468,2.075-1.383c0.149-0.493,0.261-0.949,0.273-1.984v-6.154	C57.503,58.32,57.342,57.44,57.178,56.947z M55,65.331c0,1.231-0.299,1.652-0.973,1.652c-0.387,0-1.125-0.246-1.527-0.62v-8.057	c0.402-0.374,1.137-0.736,1.527-0.736c0.674,0,0.973,0.385,0.973,1.616V65.331z"/><path fill="#fff" d="M37,28l2.849,0.003l1.84,8.09h0.179l1.752-8.09h2.88l-3.292,11.178V45H40.38l-0.006-5.503L37,28z"/><path fill="#fff" d="M46.503,35.144c0-0.957,0.324-1.722,0.975-2.287c0.645-0.57,1.516-0.854,2.612-0.857	c0.998,0,1.814,0.298,2.45,0.899c0.636,0.595,0.955,1.366,0.955,2.31l0.006,6.389c0,1.057-0.31,1.889-0.934,2.496	C51.944,44.697,51.088,45,49.988,45c-1.056,0-1.895-0.314-2.534-0.935c-0.633-0.621-0.949-1.458-0.949-2.507L46.5,35.141	L46.503,35.144z M49.003,41.789c0,0.337,0.081,0.604,0.255,0.787c0.165,0.184,0.401,0.275,0.711,0.275	c0.317,0,0.566-0.095,0.751-0.287c0.185-0.184,0.28-0.448,0.28-0.779l-0.003-6.739c0-0.27-0.098-0.487-0.289-0.654	c-0.188-0.167-0.437-0.25-0.745-0.25c-0.286,0-0.518,0.086-0.697,0.25C49.09,34.56,49,34.78,49,35.047L49.003,41.789z"/><path fill="#fff" d="M63,32v13h-2.112l-0.336-1.588c-0.451,0.516-0.92,0.908-1.412,1.176	C58.654,44.856,58.179,45,57.722,45c-0.57,0-0.995-0.192-1.285-0.57c-0.286-0.372-0.431-0.939-0.431-1.696L56,32h2.451l0.006,9.857	c0,0.296,0.052,0.513,0.156,0.649c0.098,0.13,0.272,0.203,0.495,0.203c0.185,0,0.414-0.09,0.683-0.268	c0.278-0.178,0.53-0.406,0.758-0.68L60.546,32H63z"/></svg>